# Blender 5.2.2 LTS
# www.blender.org
mtllib fence.mtl
o Cylinder.004
v 0.000578 0.592367 -0.210039
v 0.000582 0.592354 -3.004378
v 0.105328 0.637888 -0.187950
v 0.105936 0.637887 -3.032104
v 0.192396 0.692893 -0.111540
v 0.192980 0.692893 -3.104005
v 0.212751 0.775215 -0.063758
v 0.244548 0.775164 -3.204657
v 0.236260 0.872320 -0.006682
v 0.256318 0.872319 -3.317788
v 0.172696 1.004768 -0.091154
v 0.229039 0.969424 -3.212229
v 0.145950 1.051746 -0.104411
v 0.170445 1.051746 -3.128603
v 0.089915 1.106751 -0.140415
v 0.090680 1.106751 -3.075418
v 0.000057 1.126067 -0.158016
v 0.000057 1.126067 -3.056747
v -0.090280 1.106198 -0.139645
v -0.089481 1.106751 -3.074758
v -0.169955 1.051746 -0.087092
v -0.169198 1.051746 -3.128206
v -0.208027 0.969424 -0.038481
v -0.228285 0.969424 -3.212041
v -0.238720 0.860342 -0.005946
v -0.256551 0.860314 -3.317674
v -0.212725 0.775215 -0.064568
v -0.244631 0.775214 -3.204550
v -0.157331 0.692893 -0.139060
v -0.191929 0.692893 -3.103220
v -0.105038 0.637888 -0.187744
v -0.105469 0.637887 -3.032238
v 0.000009 0.446457 -3.684189
v 0.108800 2.147013 -3.610589
v 0.000009 2.147013 -3.634733
v 0.231735 2.147013 -3.613904
v 0.334084 2.147013 -3.443001
v 0.284295 2.147013 -3.317549
v 0.262655 2.147013 -3.196168
v 0.201029 2.147013 -3.093266
v 0.108800 2.147013 -3.024509
v 0.000009 2.147013 -3.000365
v -0.108783 2.147013 -3.024509
v -0.201012 2.147013 -3.093266
v -0.262637 2.147013 -3.196168
v -0.284277 2.147013 -3.317549
v -0.262637 2.147013 -3.438931
v -0.201012 2.147013 -3.541832
v -0.108783 2.147013 -3.610589
v 0.000009 0.548951 -3.634734
v 0.108800 0.548951 -3.610590
v 0.201029 0.548951 -3.541832
v 0.262655 0.548951 -3.438931
v 0.284295 0.548951 -3.317549
v 0.262655 0.548951 -3.196168
v 0.201029 0.548951 -3.093266
v 0.108800 0.548951 -3.024509
v 0.000009 0.548951 -3.000365
v -0.108783 0.548951 -3.024509
v -0.201012 0.548951 -3.093266
v -0.262637 0.548951 -3.196168
v -0.284277 0.548951 -3.317549
v -0.262637 0.548951 -3.438931
v -0.201012 0.548951 -3.541832
v -0.108783 0.548951 -3.610590
v 0.119635 2.293892 -3.641088
v -0.000667 2.293892 -3.667787
v 0.255575 2.293892 -3.644753
v 0.368753 2.293892 -3.455770
v 0.313695 2.293892 -3.317046
v 0.289766 2.293892 -3.182823
v 0.221621 2.293892 -3.069035
v 0.119635 2.293892 -2.993004
v -0.000667 2.293892 -2.966305
v -0.120968 2.293892 -2.993004
v -0.222954 2.293892 -3.069035
v -0.291099 2.293892 -3.182823
v -0.315029 2.293892 -3.317046
v -0.291099 2.293892 -3.451269
v -0.222954 2.293892 -3.565057
v -0.120968 2.293892 -3.641088
v 0.137554 2.476011 -3.691531
v -0.001784 2.476011 -3.722454
v 0.295005 2.476011 -3.695776
v 0.426091 2.476011 -3.476888
v 0.362322 2.476011 -3.316213
v 0.334606 2.476011 -3.160752
v 0.255678 2.476011 -3.028958
v 0.137554 2.476011 -2.940896
v -0.001784 2.476011 -2.909973
v -0.141121 2.476011 -2.940896
v -0.259245 2.476011 -3.028958
v -0.338173 2.476011 -3.160752
v -0.365889 2.476011 -3.316213
v -0.338173 2.476011 -3.471675
v -0.259245 2.476011 -3.603469
v -0.141121 2.476011 -3.691531
v 0.000796 1.347982 -3.557099
v 0.082758 1.347982 -3.538909
v 0.163809 1.347982 -3.514257
v 0.225577 1.347982 -3.411117
v 0.214974 1.347982 -3.318136
v 0.198670 1.347982 -3.226689
v 0.152242 1.347982 -3.149164
v 0.082758 1.347982 -3.097363
v 0.000796 1.347982 -3.079173
v -0.081166 1.347982 -3.097363
v -0.150651 1.347982 -3.149164
v -0.197078 1.347982 -3.226689
v -0.213382 1.347982 -3.318136
v -0.197078 1.347982 -3.409584
v -0.150651 1.347982 -3.487108
v -0.081166 1.347982 -3.538909
v 0.125763 0.446457 -3.656281
v 0.232372 0.446457 -3.576803
v 0.303607 0.446457 -3.457856
v 0.328621 0.446457 -3.317549
v 0.303607 0.446457 -3.177242
v 0.232372 0.446457 -3.058296
v 0.125763 0.446457 -2.978818
v 0.000009 0.446457 -2.950910
v -0.125745 0.446457 -2.978818
v -0.232355 0.446457 -3.058296
v -0.303589 0.446457 -3.177242
v -0.328603 0.446457 -3.317549
v -0.303589 0.446457 -3.457856
v -0.232355 0.446457 -3.576803
v -0.125745 0.446457 -3.656281
v 0.000009 -0.141532 -3.317550
v -0.000131 1.566646 -0.157739
v 0.000582 1.566632 -3.057740
v 0.089834 1.612166 -0.141637
v 0.108876 1.612166 -3.073143
v 0.171069 1.667172 -0.087461
v 0.171862 1.667171 -3.126757
v 0.212751 1.749493 -0.032433
v 0.230858 1.749442 -3.210923
v 0.237905 1.846598 -0.006322
v 0.258227 1.846598 -3.317788
v 0.188334 1.979047 -0.112541
v 0.246380 1.943703 -3.195577
v 0.145950 2.026024 -0.150030
v 0.193644 2.026024 -3.101393
v 0.106246 2.081030 -0.183908
v 0.106638 2.081030 -3.030247
v 0.000057 2.100345 -0.209224
v 0.000057 2.100345 -3.004441
v -0.106451 2.080476 -0.184330
v -0.106501 2.081030 -3.030321
v -0.193776 2.026024 -0.112802
v -0.193219 2.026024 -3.101740
v -0.230687 1.943703 -0.036492
v -0.245801 1.943703 -3.195657
v -0.238720 1.834621 -0.005946
v -0.256551 1.834592 -3.317674
v -0.212725 1.749493 -0.032949
v -0.230029 1.749493 -3.209885
v -0.157331 1.667172 -0.116182
v -0.170675 1.667171 -3.126663
v -0.091510 1.612166 -0.140835
v -0.090177 1.612166 -3.072877
v 0.000161 0.446457 0.470104
v -0.108630 2.147012 0.396505
v 0.000161 2.147012 0.420649
v -0.231565 2.147013 0.399819
v -0.333914 2.147013 0.228916
v -0.284125 2.147012 0.103465
v -0.262485 2.147012 -0.017916
v -0.200859 2.147012 -0.120818
v -0.108630 2.147012 -0.189575
v 0.000161 2.147012 -0.213719
v 0.108953 2.147012 -0.189575
v 0.201181 2.147012 -0.120818
v 0.262807 2.147012 -0.017916
v 0.284447 2.147012 0.103465
v 0.262807 2.147012 0.224846
v 0.201181 2.147012 0.327748
v 0.108952 2.147012 0.396505
v 0.000161 0.548951 0.420649
v -0.108630 0.548951 0.396505
v -0.200859 0.548951 0.327748
v -0.262485 0.548951 0.224846
v -0.284125 0.548951 0.103465
v -0.262485 0.548951 -0.017916
v -0.200859 0.548951 -0.120818
v -0.108630 0.548951 -0.189575
v 0.000161 0.548951 -0.213719
v 0.108953 0.548951 -0.189575
v 0.201181 0.548951 -0.120818
v 0.262807 0.548951 -0.017916
v 0.284447 0.548951 0.103465
v 0.262807 0.548951 0.224846
v 0.201181 0.548951 0.327748
v 0.108952 0.548951 0.396505
v -0.119465 2.293892 0.427004
v 0.000836 2.293892 0.453702
v -0.255405 2.293892 0.430669
v -0.368583 2.293892 0.241685
v -0.313526 2.293892 0.102961
v -0.289596 2.293892 -0.031261
v -0.221451 2.293892 -0.145050
v -0.119465 2.293892 -0.221081
v 0.000836 2.293892 -0.247780
v 0.121138 2.293892 -0.221081
v 0.223124 2.293892 -0.145050
v 0.291269 2.293892 -0.031261
v 0.315198 2.293892 0.102961
v 0.291269 2.293892 0.237184
v 0.223124 2.293892 0.350973
v 0.121138 2.293892 0.427004
v -0.137384 2.476011 0.477446
v 0.001953 2.476011 0.508369
v -0.294835 2.476011 0.481691
v -0.425921 2.476011 0.262804
v -0.362152 2.476011 0.102129
v -0.334436 2.476011 -0.053333
v -0.255508 2.476011 -0.185127
v -0.137384 2.476011 -0.273189
v 0.001953 2.476011 -0.304112
v 0.141291 2.476011 -0.273189
v 0.259415 2.476011 -0.185127
v 0.338343 2.476011 -0.053333
v 0.366059 2.476011 0.102129
v 0.338343 2.476011 0.257590
v 0.259415 2.476011 0.389384
v 0.141290 2.476011 0.477446
v -0.000626 1.347982 0.343014
v -0.082588 1.347982 0.324824
v -0.163639 1.347982 0.300173
v -0.225408 1.347982 0.197032
v -0.214804 1.347982 0.104051
v -0.198500 1.347982 0.012604
v -0.152073 1.347982 -0.064921
v -0.082588 1.347982 -0.116722
v -0.000626 1.347982 -0.134912
v 0.081336 1.347982 -0.116722
v 0.150820 1.347982 -0.064921
v 0.197248 1.347982 0.012604
v 0.213552 1.347982 0.104051
v 0.197248 1.347982 0.195499
v 0.150820 1.347982 0.273023
v 0.081336 1.347982 0.324824
v -0.125593 0.446457 0.442196
v -0.232203 0.446457 0.362718
v -0.303437 0.446457 0.243772
v -0.328451 0.446457 0.103465
v -0.303437 0.446457 -0.036842
v -0.232203 0.446457 -0.155789
v -0.125593 0.446457 -0.235266
v 0.000161 0.446457 -0.263175
v 0.125915 0.446457 -0.235266
v 0.232525 0.446457 -0.155789
v 0.303759 0.446457 -0.036842
v 0.328773 0.446457 0.103465
v 0.303759 0.446457 0.243772
v 0.232525 0.446457 0.362718
v 0.125915 0.446457 0.442196
v 0.000161 -0.141532 0.103465
v -0.159353 -0.141532 -3.746804
v 0.000009 -0.141532 -3.782171
v -0.294452 -0.141532 -3.646086
v -0.384723 -0.141532 -3.495353
v -0.416422 -0.141532 -3.317549
v -0.384723 -0.141532 -3.139746
v -0.294452 -0.141532 -2.989012
v -0.159353 -0.141532 -2.888295
v 0.000009 -0.141532 -2.852928
v 0.159370 -0.141532 -2.888295
v 0.294470 -0.141532 -2.989012
v 0.384741 -0.141532 -3.139746
v 0.416440 -0.141532 -3.317549
v 0.384741 -0.141532 -3.495353
v 0.294470 -0.141532 -3.646086
v 0.159370 -0.141532 -3.746804
v 0.159522 -0.141532 0.532719
v 0.000161 -0.141532 0.568086
v 0.294622 -0.141532 0.432002
v 0.384893 -0.141532 0.281268
v 0.416592 -0.141532 0.103465
v 0.384893 -0.141532 -0.074338
v 0.294622 -0.141532 -0.225073
v 0.159522 -0.141532 -0.325790
v 0.000161 -0.141532 -0.361157
v -0.159200 -0.141532 -0.325790
v -0.294300 -0.141532 -0.225073
v -0.384571 -0.141532 -0.074339
v -0.416270 -0.141532 0.103465
v -0.384571 -0.141532 0.281268
v -0.294300 -0.141532 0.432002
v -0.159200 -0.141532 0.532719
v 0.004003 2.476011 -3.337525
v -0.004164 2.476011 0.121332
v -0.000163 1.623805 -1.625956
v 0.078706 1.659992 -1.625811
v 0.135946 1.703713 -1.626038
v 0.176030 1.769125 -1.638202
v 0.196913 1.846328 -1.670852
v 0.172662 1.937410 -1.663540
v 0.134816 1.988944 -1.640456
v 0.084260 2.032665 -1.625205
v -0.000300 2.048018 -1.624796
v -0.084978 2.032447 -1.625401
v -0.154144 1.988944 -1.625956
v -0.189776 1.923512 -1.633667
v -0.197252 1.836797 -1.670658
v -0.176378 1.769145 -1.637988
v -0.130758 1.703713 -1.637295
v -0.072547 1.659992 -1.625388
v 0.000120 0.709918 -1.836892
v 0.060854 0.736227 -1.840738
v 0.111160 0.768013 -1.846037
v 0.133331 0.815568 -1.867921
v 0.143001 0.871699 -1.891694
v 0.118369 0.936452 -1.877142
v 0.092293 0.975384 -1.852497
v 0.051999 1.007170 -1.843563
v -0.000182 1.018332 -1.841639
v -0.052119 1.007035 -1.843154
v -0.098175 0.975384 -1.848132
v -0.127183 0.927813 -1.864205
v -0.144110 0.864768 -1.891476
v -0.133782 0.815585 -1.868083
v -0.102669 0.768013 -1.852502
v -0.061057 0.736227 -1.840733
vn 0.0010 -0.9999 0.0127
vn 0.0014 -0.9950 0.0996
vn 0.4913 -0.8664 0.0895
vn 0.4896 -0.8719 0.0109
vn 0.7692 -0.6327 0.0896
vn 0.7827 -0.6223 0.0130
vn 0.9687 -0.2331 0.0852
vn 0.9675 -0.2525 0.0161
vn 0.9924 0.0916 0.0826
vn 0.9945 0.1024 0.0195
vn 0.9246 0.3719 0.0831
vn 0.9036 0.4279 0.0184
vn 0.7483 0.6579 0.0848
vn 0.7611 0.6485 0.0141
vn 0.4264 0.9004 0.0868
vn 0.4492 0.8934 0.0121
vn -0.0009 0.9961 0.0879
vn -0.0020 0.9999 0.0109
vn -0.4154 0.9056 0.0855
vn -0.4150 0.9098 0.0106
vn -0.7399 0.6677 0.0819
vn -0.7516 0.6596 0.0110
vn -0.9341 0.3481 0.0796
vn -0.9325 0.3608 0.0130
vn -0.9950 0.0584 0.0805
vn -0.9991 0.0374 0.0184
vn -0.9604 -0.2647 0.0867
vn -0.9381 -0.3460 0.0166
vn -0.7620 -0.6411 0.0911
vn -0.7641 -0.6448 0.0170
vn -0.5063 -0.8576 0.0906
vn -0.5365 -0.8438 0.0126
vn 0.0001 -0.0000 -1.0000
vn 0.0002 -0.1591 -0.9873
vn 0.1296 -0.1569 -0.9791
vn 0.2612 -0.0072 -0.9653
vn 0.6173 -0.1978 -0.7615
vn 0.6893 -0.0319 -0.7238
vn 0.9836 -0.1790 -0.0242
vn 0.9919 -0.0148 -0.1261
vn 0.9633 -0.1402 0.2289
vn 0.9920 0.0003 0.1262
vn 0.9452 -0.1436 0.2932
vn 0.9546 -0.0000 0.2980
vn 0.7562 -0.1505 0.6368
vn 0.7635 -0.0000 0.6458
vn 0.4268 -0.1587 0.8903
vn 0.4311 -0.0000 0.9023
vn 0.0002 -0.1631 0.9866
vn 0.0001 -0.0000 1.0000
vn -0.4263 -0.1610 0.8902
vn -0.4308 -0.0000 0.9024
vn -0.7555 -0.1545 0.6367
vn -0.7634 -0.0000 0.6459
vn -0.9444 -0.1487 0.2933
vn -0.9545 -0.0000 0.2981
vn -0.9886 -0.1502 -0.0000
vn -1.0000 -0.0000 -0.0000
vn -0.9446 -0.1475 -0.2934
vn -0.9545 -0.0000 -0.2982
vn -0.7558 -0.1519 -0.6370
vn -0.7634 -0.0000 -0.6459
vn -0.4265 -0.1574 -0.8907
vn -0.4308 -0.0000 -0.9024
vn 0.4189 -0.2542 0.8717
vn 0.0001 -0.2612 0.9653
vn 0.4113 0.2734 0.8695
vn -0.0001 0.2790 0.9603
vn -0.0000 0.3082 0.9513
vn 0.4190 0.3033 0.8559
vn 0.7200 0.2532 -0.6461
vn 0.9435 0.2284 -0.2401
vn 0.9197 0.2805 -0.2747
vn 0.7393 0.2925 -0.6065
vn -0.7334 0.2610 -0.6276
vn -0.4115 0.2732 -0.8695
vn -0.4190 0.3033 -0.8559
vn -0.7393 0.2925 -0.6065
vn -0.4114 0.2738 0.8694
vn -0.7333 0.2615 0.6276
vn -0.7393 0.2925 0.6065
vn -0.4190 0.3033 0.8559
vn 0.9688 0.2467 0.0241
vn 0.9225 0.2502 0.2940
vn 0.9197 0.2805 0.2747
vn 0.9646 0.2636 -0.0000
vn -0.9223 0.2511 0.2939
vn -0.9650 0.2624 -0.0000
vn -0.9646 0.2636 -0.0000
vn -0.9197 0.2805 0.2747
vn 0.7334 0.2608 0.6278
vn 0.7393 0.2925 0.6065
vn 0.3735 0.2711 -0.8871
vn 0.4190 0.3033 -0.8559
vn -0.9223 0.2509 -0.2939
vn -0.9197 0.2805 -0.2747
vn -0.0001 0.2783 -0.9605
vn -0.0000 0.3082 -0.9513
vn 0.9890 0.1477 -0.0000
vn 0.9481 0.1487 -0.2809
vn 0.9622 -0.2718 -0.0154
vn 0.5891 -0.2947 -0.7524
vn 0.6271 -0.3330 -0.7042
vn 0.9532 -0.3019 -0.0154
vn 0.0001 -0.2540 -0.9672
vn 0.0949 -0.2422 -0.9656
vn -0.9708 -0.2400 -0.0000
vn -0.9280 -0.2376 -0.2870
vn 0.9297 -0.2304 0.2874
vn 0.7432 -0.2413 0.6240
vn -0.7417 -0.2488 0.6229
vn -0.9275 -0.2398 0.2869
vn -0.4190 -0.2518 -0.8724
vn 0.9436 -0.2215 0.2459
vn -0.4182 -0.2584 0.8708
vn -0.7426 -0.2441 -0.6237
vn -0.7478 -0.2814 0.6014
vn -0.9247 -0.2714 0.2669
vn 0.9337 -0.2505 0.2557
vn -0.9631 -0.2690 0.0001
vn 0.9273 -0.2608 0.2684
vn -0.9254 -0.2691 -0.2670
vn 0.7490 -0.2729 0.6038
vn -0.7490 -0.2763 -0.6023
vn 0.4254 -0.2874 0.8581
vn -0.4270 -0.2849 -0.8582
vn -0.0007 -0.2955 0.9553
vn -0.0007 -0.2875 -0.9578
vn 0.0868 -0.2738 -0.9579
vn -0.4260 -0.2921 0.8563
vn -0.9481 0.1487 0.2809
vn -0.7646 0.1545 0.6258
vn 0.7646 0.1545 -0.6258
vn -0.4344 0.1613 0.8862
vn 0.4344 0.1613 -0.8862
vn -0.0000 0.1644 0.9864
vn -0.0000 0.1644 -0.9864
vn -0.4344 0.1613 -0.8862
vn 0.4344 0.1613 0.8862
vn -0.7646 0.1545 -0.6258
vn 0.7646 0.1545 0.6258
vn -0.9481 0.1487 -0.2809
vn 0.9481 0.1487 0.2809
vn -0.9890 0.1477 -0.0000
vn -0.0170 -0.9999 0.0013
vn -0.0236 -0.9989 0.0403
vn 0.5313 -0.8464 0.0374
vn 0.5231 -0.8523 0.0022
vn 0.7562 -0.6534 0.0359
vn 0.7514 -0.6598 0.0024
vn 0.9245 -0.3796 0.0362
vn 0.9234 -0.3838 0.0042
vn 0.9983 -0.0418 0.0401
vn 0.9999 -0.0080 0.0094
vn 0.9449 0.3245 0.0443
vn 0.9096 0.4153 0.0116
vn 0.7469 0.6635 0.0439
vn 0.7442 0.6680 0.0086
vn 0.4097 0.9114 0.0400
vn 0.4424 0.8968 0.0032
vn -0.0004 0.9993 0.0376
vn -0.0013 1.0000 0.0005
vn -0.3797 0.9244 0.0374
vn -0.3697 0.9292 0.0005
vn -0.7394 0.6722 0.0375
vn -0.7375 0.6754 0.0014
vn -0.9642 0.2627 0.0373
vn -0.9624 0.2715 0.0036
vn -0.9942 -0.1011 0.0364
vn -0.9942 -0.1072 0.0070
vn -0.9138 -0.4045 0.0361
vn -0.9044 -0.4267 0.0042
vn -0.7247 -0.6882 0.0357
vn -0.7276 -0.6860 0.0035
vn -0.5225 -0.8519 0.0351
vn -0.5331 -0.8461 0.0007
vn -0.0001 -0.0000 1.0000
vn -0.0002 -0.1591 0.9873
vn -0.1296 -0.1569 0.9791
vn -0.2612 -0.0072 0.9653
vn -0.6173 -0.1978 0.7615
vn -0.6893 -0.0319 0.7238
vn -0.9836 -0.1790 0.0242
vn -0.9919 -0.0148 0.1261
vn -0.9633 -0.1402 -0.2289
vn -0.9920 0.0003 -0.1262
vn -0.9452 -0.1436 -0.2932
vn -0.9546 -0.0000 -0.2980
vn -0.7562 -0.1505 -0.6368
vn -0.7635 -0.0000 -0.6458
vn -0.4268 -0.1587 -0.8903
vn -0.4311 -0.0000 -0.9023
vn -0.0002 -0.1631 -0.9866
vn -0.0001 -0.0000 -1.0000
vn 0.4263 -0.1610 -0.8902
vn 0.4308 -0.0000 -0.9024
vn 0.7555 -0.1545 -0.6367
vn 0.7634 -0.0000 -0.6459
vn 0.9444 -0.1487 -0.2933
vn 0.9545 -0.0000 -0.2981
vn 0.9886 -0.1502 -0.0000
vn 1.0000 -0.0000 -0.0000
vn 0.9446 -0.1475 0.2934
vn 0.9545 -0.0000 0.2982
vn 0.7558 -0.1519 0.6370
vn 0.7634 -0.0000 0.6459
vn 0.4265 -0.1574 0.8907
vn 0.4308 -0.0000 0.9024
vn -0.4189 -0.2542 -0.8717
vn -0.0001 -0.2612 -0.9653
vn -0.4113 0.2734 -0.8695
vn 0.0001 0.2790 -0.9603
vn -0.7200 0.2532 0.6461
vn -0.9435 0.2284 0.2401
vn 0.7334 0.2610 0.6276
vn 0.4115 0.2732 0.8695
vn 0.4114 0.2738 -0.8694
vn 0.7333 0.2615 -0.6276
vn -0.9688 0.2467 -0.0241
vn -0.9225 0.2502 -0.2940
vn 0.9223 0.2511 -0.2939
vn 0.9650 0.2624 -0.0000
vn -0.7334 0.2608 -0.6278
vn -0.3735 0.2711 0.8871
vn 0.9223 0.2509 0.2939
vn 0.0001 0.2783 0.9605
vn -0.9622 -0.2718 0.0154
vn -0.5891 -0.2947 0.7524
vn -0.6271 -0.3330 0.7042
vn -0.9532 -0.3019 0.0154
vn -0.0001 -0.2540 0.9672
vn -0.0949 -0.2422 0.9656
vn 0.9708 -0.2400 -0.0000
vn 0.9280 -0.2376 0.2870
vn -0.9297 -0.2304 -0.2874
vn -0.7432 -0.2413 -0.6240
vn 0.7417 -0.2488 -0.6229
vn 0.9275 -0.2398 -0.2869
vn 0.4190 -0.2518 0.8724
vn -0.9436 -0.2215 -0.2459
vn 0.4182 -0.2584 -0.8708
vn 0.7426 -0.2441 0.6237
vn 0.7478 -0.2813 -0.6014
vn 0.9247 -0.2714 -0.2669
vn -0.9337 -0.2505 -0.2557
vn 0.9631 -0.2690 -0.0001
vn -0.9273 -0.2608 -0.2684
vn 0.9254 -0.2691 0.2670
vn -0.7490 -0.2729 -0.6038
vn 0.7490 -0.2763 0.6023
vn -0.4254 -0.2874 -0.8581
vn 0.4270 -0.2849 0.8582
vn 0.0007 -0.2955 -0.9553
vn 0.0007 -0.2875 0.9578
vn -0.0868 -0.2738 0.9579
vn 0.4260 -0.2921 -0.8563
vn -0.0000 -1.0000 -0.0000
vn -0.0000 1.0000 -0.0000
vn -0.5386 -0.8419 -0.0332
vn -0.0061 -0.9993 -0.0381
vn -0.7396 -0.6724 -0.0293
vn -0.9063 -0.4218 -0.0259
vn -0.9937 -0.1090 -0.0256
vn -0.9674 0.2516 -0.0288
vn -0.7613 0.6474 -0.0345
vn -0.3784 0.9249 -0.0363
vn -0.0014 0.9993 -0.0366
vn 0.4864 0.8731 -0.0338
vn 0.7591 0.6504 -0.0255
vn 0.8799 0.4747 -0.0223
vn 0.9996 0.0159 -0.0236
vn 0.9301 -0.3663 -0.0267
vn 0.7563 -0.6535 -0.0308
vn 0.5150 -0.8566 -0.0327
vn -0.5514 -0.8319 -0.0624
vn 0.0015 -0.9974 -0.0716
vn -0.7723 -0.6330 -0.0538
vn -0.9195 -0.3899 -0.0497
vn -0.9987 0.0131 -0.0500
vn -0.9328 0.3567 -0.0507
vn -0.7597 0.6477 -0.0578
vn -0.4097 0.9101 -0.0619
vn -0.0023 0.9980 -0.0635
vn 0.4583 0.8867 -0.0609
vn 0.7666 0.6400 -0.0520
vn 0.8843 0.4646 -0.0461
vn 0.9939 0.0991 -0.0484
vn 0.9668 -0.2505 -0.0505
vn 0.8028 -0.5930 -0.0614
vn 0.4832 -0.8731 -0.0646
vt 0.994176 0.403424
vt 0.994176 0.505877
vt 0.963898 0.505877
vt 0.963898 0.403424
vt 0.933620 0.505877
vt 0.933620 0.403424
vt 0.903342 0.505877
vt 0.903342 0.403424
vt 0.873065 0.505877
vt 0.873065 0.403424
vt 0.842787 0.505877
vt 0.842787 0.403424
vt 0.812509 0.505877
vt 0.812509 0.403424
vt 0.782231 0.505877
vt 0.782231 0.403424
vt 0.751953 0.505877
vt 0.751953 0.403424
vt 0.721675 0.505877
vt 0.721675 0.403424
vt 0.691397 0.505877
vt 0.691397 0.403424
vt 0.661120 0.505877
vt 0.661120 0.403424
vt 0.630842 0.505877
vt 0.630842 0.403424
vt 0.600564 0.505877
vt 0.600564 0.403424
vt 0.570286 0.505877
vt 0.570286 0.403424
vt 0.540008 0.505877
vt 0.540008 0.403424
vt 0.509730 0.505877
vt 0.509730 0.403424
vt 0.999089 0.855814
vt 0.999089 0.998314
vt 0.963464 0.998314
vt 0.963464 0.855814
vt 0.927838 0.998314
vt 0.927838 0.855814
vt 0.892213 0.998314
vt 0.892213 0.855814
vt 0.856588 0.998314
vt 0.856588 0.855814
vt 0.820963 0.998314
vt 0.820963 0.855814
vt 0.785338 0.998314
vt 0.785338 0.855814
vt 0.749713 0.998314
vt 0.749713 0.855814
vt 0.714088 0.998314
vt 0.714088 0.855814
vt 0.678463 0.998314
vt 0.678463 0.855814
vt 0.642838 0.998314
vt 0.642838 0.855814
vt 0.607213 0.998314
vt 0.607213 0.855814
vt 0.571588 0.998314
vt 0.571588 0.855814
vt 0.535963 0.998314
vt 0.535963 0.855814
vt 0.500338 0.998314
vt 0.500338 0.855814
vt 0.464713 0.998314
vt 0.464713 0.855814
vt 0.429088 0.998314
vt 0.429088 0.855814
vt 0.749713 0.713314
vt 0.714088 0.713314
vt 0.927838 0.713314
vt 0.892213 0.713314
vt 0.500338 0.713314
vt 0.464713 0.713314
vt 0.678463 0.713314
vt 0.642838 0.713314
vt 0.856588 0.713314
vt 0.820963 0.713314
vt 0.607213 0.713314
vt 0.571588 0.713314
vt 0.785338 0.713314
vt 0.963464 0.713314
vt 0.535963 0.713314
vt 0.429088 0.713314
vt 0.999089 0.713314
vt 0.996270 0.128279
vt 0.996270 0.247811
vt 0.966069 0.247811
vt 0.966069 0.128279
vt 0.935868 0.247811
vt 0.935868 0.128279
vt 0.905666 0.247811
vt 0.905666 0.128279
vt 0.875465 0.247811
vt 0.875465 0.128279
vt 0.845264 0.247811
vt 0.845264 0.128279
vt 0.815063 0.247811
vt 0.815063 0.128279
vt 0.784861 0.247811
vt 0.784861 0.128279
vt 0.754660 0.247811
vt 0.754660 0.128279
vt 0.724458 0.247811
vt 0.724459 0.128279
vt 0.694257 0.247811
vt 0.694257 0.128279
vt 0.664056 0.247811
vt 0.664056 0.128279
vt 0.633855 0.247811
vt 0.633855 0.128279
vt 0.603653 0.247811
vt 0.603653 0.128279
vt 0.573452 0.247811
vt 0.573452 0.128279
vt 0.543250 0.247811
vt 0.543250 0.128279
vt 0.513049 0.247811
vt 0.513049 0.128279
vt 0.997605 0.855228
vt 0.997605 0.996756
vt 0.962223 0.996756
vt 0.962223 0.855228
vt 0.926841 0.996756
vt 0.926841 0.855228
vt 0.891459 0.996756
vt 0.891459 0.855228
vt 0.856077 0.996756
vt 0.856077 0.855228
vt 0.820695 0.996756
vt 0.820695 0.855228
vt 0.785313 0.996756
vt 0.785313 0.855228
vt 0.749931 0.996756
vt 0.749931 0.855228
vt 0.714549 0.996756
vt 0.714549 0.855228
vt 0.679168 0.996756
vt 0.679168 0.855228
vt 0.643786 0.996756
vt 0.643786 0.855228
vt 0.608404 0.996756
vt 0.608404 0.855228
vt 0.573022 0.996756
vt 0.573022 0.855228
vt 0.537640 0.996756
vt 0.537640 0.855228
vt 0.502258 0.996756
vt 0.502258 0.855228
vt 0.466876 0.996756
vt 0.466876 0.855228
vt 0.431494 0.996756
vt 0.431494 0.855228
vt 0.749931 0.713700
vt 0.714549 0.713700
vt 0.926841 0.713700
vt 0.891459 0.713700
vt 0.502258 0.713700
vt 0.466876 0.713700
vt 0.679168 0.713700
vt 0.643786 0.713700
vt 0.856077 0.713700
vt 0.820695 0.713700
vt 0.608404 0.713700
vt 0.573022 0.713700
vt 0.785313 0.713700
vt 0.962223 0.713700
vt 0.537640 0.713700
vt 0.431494 0.713700
vt 0.997605 0.713700
vt 0.377783 0.417616
vt 0.483112 0.363045
vt 0.502026 0.416064
vt 0.448161 0.318334
vt 0.402496 0.288737
vt 0.353069 0.278762
vt 0.307404 0.289926
vt 0.272454 0.320529
vt 0.253539 0.365913
vt 0.253539 0.419169
vt 0.272454 0.472188
vt 0.307405 0.516899
vt 0.353069 0.546495
vt 0.402496 0.556470
vt 0.448161 0.545307
vt 0.483112 0.514703
vt 0.502026 0.469319
vt 0.129092 0.417616
vt 0.253335 0.365913
vt 0.253335 0.419169
vt 0.234420 0.320529
vt 0.199470 0.289926
vt 0.153805 0.278762
vt 0.104378 0.288737
vt 0.058713 0.318334
vt 0.023763 0.363045
vt 0.004848 0.416064
vt 0.004848 0.469319
vt 0.023763 0.514703
vt 0.058713 0.545307
vt 0.104378 0.556470
vt 0.153805 0.546495
vt 0.199470 0.516899
vt 0.234420 0.472188
vt 0.254758 0.128374
vt 0.267787 0.079779
vt 0.370038 0.130939
vt 0.297380 0.038670
vt 0.339032 0.011306
vt 0.386400 0.001851
vt 0.432275 0.011746
vt 0.469671 0.039484
vt 0.492896 0.080843
vt 0.498413 0.129525
vt 0.485384 0.178119
vt 0.455790 0.219228
vt 0.414139 0.246593
vt 0.366770 0.256047
vt 0.316866 0.278080
vt 0.254758 0.232011
vt 0.260275 0.177056
vt 0.010893 0.128374
vt 0.023923 0.079779
vt 0.126797 0.131058
vt 0.053516 0.038670
vt 0.095168 0.011306
vt 0.142536 0.001851
vt 0.188411 0.011746
vt 0.225807 0.039484
vt 0.249031 0.080843
vt 0.254549 0.129525
vt 0.241519 0.178119
vt 0.211926 0.219228
vt 0.170275 0.246593
vt 0.122906 0.256047
vt 0.073002 0.278080
vt 0.010893 0.232011
vt 0.016411 0.177056
vt 0.543250 0.006200
vt 0.513049 0.006200
vt 0.573452 0.006200
vt 0.603653 0.006200
vt 0.633855 0.006200
vt 0.664056 0.006200
vt 0.694257 0.006200
vt 0.724458 0.006200
vt 0.754660 0.006200
vt 0.784861 0.006200
vt 0.815063 0.006200
vt 0.845264 0.006200
vt 0.875465 0.006200
vt 0.905666 0.006200
vt 0.935868 0.006200
vt 0.966069 0.006200
vt 0.996270 0.006200
vt 0.540008 0.263654
vt 0.509730 0.263654
vt 0.570286 0.263654
vt 0.600564 0.263654
vt 0.630842 0.263654
vt 0.661120 0.263654
vt 0.691397 0.263654
vt 0.721675 0.263654
vt 0.751953 0.263654
vt 0.782231 0.263654
vt 0.812509 0.263654
vt 0.842787 0.263654
vt 0.873065 0.263654
vt 0.903342 0.263654
vt 0.933620 0.263654
vt 0.963898 0.263654
vt 0.994176 0.263654
s 1
usemtl Material.001
f 309/1/1 2/2/2 4/3/3 310/4/4
f 310/4/4 4/3/3 6/5/5 311/6/6
f 311/6/6 6/5/5 8/7/7 312/8/8
f 312/8/8 8/7/7 10/9/9 313/10/10
f 313/10/10 10/9/9 12/11/11 314/12/12
f 314/12/12 12/11/11 14/13/13 315/14/14
f 315/14/14 14/13/13 16/15/15 316/16/16
f 316/16/16 16/15/15 18/17/17 317/18/18
f 317/18/18 18/17/17 20/19/19 318/20/20
f 318/20/20 20/19/19 22/21/21 319/22/22
f 319/22/22 22/21/21 24/23/23 320/24/24
f 320/24/24 24/23/23 26/25/25 321/26/26
f 321/26/26 26/25/25 28/27/27 322/28/28
f 322/28/28 28/27/27 30/29/29 323/30/30
f 323/30/30 30/29/29 32/31/31 324/32/32
f 324/32/32 32/31/31 2/33/2 309/34/1
f 98/35/33 35/36/34 34/37/35 99/38/36
f 99/38/36 34/37/35 36/39/37 100/40/38
f 100/40/38 36/39/37 37/41/39 101/42/40
f 101/42/40 37/41/39 38/43/41 102/44/42
f 102/44/42 38/43/41 39/45/43 103/46/44
f 103/46/44 39/45/43 40/47/45 104/48/46
f 104/48/46 40/47/45 41/49/47 105/50/48
f 105/50/48 41/49/47 42/51/49 106/52/50
f 106/52/50 42/51/49 43/53/51 107/54/52
f 107/54/52 43/53/51 44/55/53 108/56/54
f 108/56/54 44/55/53 45/57/55 109/58/56
f 109/58/56 45/57/55 46/59/57 110/60/58
f 110/60/58 46/59/57 47/61/59 111/62/60
f 111/62/60 47/61/59 48/63/61 112/64/62
f 112/64/62 48/63/61 49/65/63 113/66/64
f 113/66/64 49/65/63 35/67/34 98/68/33
f 42/51/49 41/49/47 73/49/65 74/51/66
f 57/69/67 58/70/68 121/70/69 120/69/70
f 52/71/71 53/72/72 116/72/73 115/71/74
f 64/73/75 65/74/76 128/74/77 127/73/78
f 59/75/79 60/76/80 123/76/81 122/75/82
f 54/77/83 55/78/84 118/78/85 117/77/86
f 61/79/87 62/80/88 125/80/89 124/79/90
f 56/81/91 57/69/67 120/69/70 119/81/92
f 51/82/93 52/71/71 115/71/74 114/82/94
f 63/83/95 64/73/75 127/73/78 126/83/96
f 58/70/68 59/75/79 122/75/82 121/70/69
f 53/72/72 54/77/83 117/77/86 116/72/73
f 65/74/76 50/84/97 33/84/98 128/74/77
f 60/76/80 61/79/87 124/79/90 123/76/81
f 55/78/84 56/81/91 119/81/92 118/78/85
f 116/72/73 117/77/86 271/77/99 272/72/100
f 50/85/97 51/82/93 114/82/94 33/85/98
f 69/41/101 68/39/102 84/39/103 85/41/104
f 34/37/35 35/36/34 67/36/105 66/37/106
f 47/61/59 46/59/57 78/59/107 79/61/108
f 40/47/45 39/45/43 71/45/109 72/47/110
f 45/57/55 44/55/53 76/55/111 77/57/112
f 35/67/34 49/65/63 81/65/113 67/67/105
f 38/43/41 37/41/39 69/41/101 70/43/114
f 43/53/51 42/51/49 74/51/66 75/53/115
f 48/63/61 47/61/59 79/61/108 80/63/116
f 36/39/37 34/37/35 66/37/106 68/39/102
f 41/49/47 40/47/45 72/47/110 73/49/65
f 46/59/57 45/57/55 77/57/112 78/59/107
f 39/45/43 38/43/41 70/43/114 71/45/109
f 44/55/53 43/53/51 75/53/115 76/55/111
f 49/65/63 48/63/61 80/63/116 81/65/113
f 37/41/39 36/39/37 68/39/102 69/41/101
f 77/57/112 76/55/111 92/55/117 93/57/118
f 70/43/114 69/41/101 85/41/104 86/43/119
f 78/59/107 77/57/112 93/57/118 94/59/120
f 71/45/109 70/43/114 86/43/119 87/45/121
f 79/61/108 78/59/107 94/59/120 95/61/122
f 72/47/110 71/45/109 87/45/121 88/47/123
f 80/63/116 79/61/108 95/61/122 96/63/124
f 73/49/65 72/47/110 88/47/123 89/49/125
f 81/65/113 80/63/116 96/63/124 97/65/126
f 74/51/66 73/49/65 89/49/125 90/51/127
f 66/37/106 67/36/105 83/36/128 82/37/129
f 67/67/105 81/65/113 97/65/126 83/67/128
f 75/53/115 74/51/66 90/51/127 91/53/130
f 68/39/102 66/37/106 82/37/129 84/39/103
f 76/55/111 75/53/115 91/53/130 92/55/117
f 65/74/76 113/66/64 98/68/33 50/84/97
f 64/73/75 112/64/62 113/66/64 65/74/76
f 63/83/95 111/62/60 112/64/62 64/73/75
f 62/80/88 110/60/58 111/62/60 63/83/95
f 61/79/87 109/58/56 110/60/58 62/80/88
f 60/76/80 108/56/54 109/58/56 61/79/87
f 59/75/79 107/54/52 108/56/54 60/76/80
f 58/70/68 106/52/50 107/54/52 59/75/79
f 57/69/67 105/50/48 106/52/50 58/70/68
f 56/81/91 104/48/46 105/50/48 57/69/67
f 55/78/84 103/46/44 104/48/46 56/81/91
f 54/77/83 102/44/42 103/46/44 55/78/84
f 53/72/72 101/42/40 102/44/42 54/77/83
f 52/71/71 100/40/38 101/42/40 53/72/72
f 51/82/93 99/38/36 100/40/38 52/71/71
f 50/85/97 98/35/33 99/38/36 51/82/93
f 62/80/88 63/83/95 126/83/96 125/80/89
f 123/76/81 124/79/90 264/79/131 265/76/132
f 115/71/74 116/72/73 272/72/100 273/71/133
f 122/75/82 123/76/81 265/76/132 266/75/134
f 114/82/94 115/71/74 273/71/133 274/82/135
f 121/70/69 122/75/82 266/75/134 267/70/136
f 128/74/77 33/84/98 260/84/137 259/74/138
f 33/85/98 114/82/94 274/82/135 260/85/137
f 120/69/70 121/70/69 267/70/136 268/69/139
f 127/73/78 128/74/77 259/74/138 261/73/140
f 119/81/92 120/69/70 268/69/139 269/81/141
f 126/83/96 127/73/78 261/73/140 262/83/142
f 118/78/85 119/81/92 269/81/141 270/78/143
f 125/80/89 126/83/96 262/83/142 263/80/144
f 117/77/86 118/78/85 270/78/143 271/77/99
f 124/79/90 125/80/89 263/80/144 264/79/131
f 293/86/145 131/87/146 133/88/147 294/89/148
f 294/89/148 133/88/147 135/90/149 295/91/150
f 295/91/150 135/90/149 137/92/151 296/93/152
f 296/93/152 137/92/151 139/94/153 297/95/154
f 297/95/154 139/94/153 141/96/155 298/97/156
f 298/97/156 141/96/155 143/98/157 299/99/158
f 299/99/158 143/98/157 145/100/159 300/101/160
f 300/101/160 145/100/159 147/102/161 301/103/162
f 301/103/162 147/102/161 149/104/163 302/105/164
f 302/105/164 149/104/163 151/106/165 303/107/166
f 303/107/166 151/106/165 153/108/167 304/109/168
f 304/109/168 153/108/167 155/110/169 305/111/170
f 305/111/170 155/110/169 157/112/171 306/113/172
f 306/113/172 157/112/171 159/114/173 307/115/174
f 307/115/174 159/114/173 161/116/175 308/117/176
f 308/117/176 161/116/175 131/118/146 293/119/145
f 227/120/177 164/121/178 163/122/179 228/123/180
f 228/123/180 163/122/179 165/124/181 229/125/182
f 229/125/182 165/124/181 166/126/183 230/127/184
f 230/127/184 166/126/183 167/128/185 231/129/186
f 231/129/186 167/128/185 168/130/187 232/131/188
f 232/131/188 168/130/187 169/132/189 233/133/190
f 233/133/190 169/132/189 170/134/191 234/135/192
f 234/135/192 170/134/191 171/136/193 235/137/194
f 235/137/194 171/136/193 172/138/195 236/139/196
f 236/139/196 172/138/195 173/140/197 237/141/198
f 237/141/198 173/140/197 174/142/199 238/143/200
f 238/143/200 174/142/199 175/144/201 239/145/202
f 239/145/202 175/144/201 176/146/203 240/147/204
f 240/147/204 176/146/203 177/148/205 241/149/206
f 241/149/206 177/148/205 178/150/207 242/151/208
f 242/151/208 178/150/207 164/152/178 227/153/177
f 171/136/193 170/134/191 202/134/209 203/136/210
f 186/154/211 187/155/212 250/155/98 249/154/77
f 181/156/213 182/157/214 245/157/90 244/156/81
f 193/158/215 194/159/216 257/159/70 256/158/92
f 188/160/217 189/161/218 252/161/74 251/160/94
f 183/162/219 184/163/220 247/163/96 246/162/89
f 190/164/221 191/165/222 254/165/86 253/164/73
f 185/166/223 186/154/211 249/154/77 248/166/78
f 180/167/224 181/156/213 244/156/81 243/167/82
f 192/168/225 193/158/215 256/158/92 255/168/85
f 187/155/212 188/160/217 251/160/94 250/155/98
f 182/157/214 183/162/219 246/162/89 245/157/90
f 194/159/216 179/169/226 162/169/69 257/159/70
f 189/161/218 190/164/221 253/164/73 252/161/74
f 184/163/220 185/166/223 248/166/78 247/163/96
f 245/157/90 246/162/89 287/162/144 288/157/131
f 179/170/226 180/167/224 243/167/82 162/170/69
f 198/126/227 197/124/228 213/124/229 214/126/230
f 163/122/179 164/121/178 196/121/231 195/122/232
f 176/146/203 175/144/201 207/144/233 208/146/234
f 169/132/189 168/130/187 200/130/235 201/132/236
f 174/142/199 173/140/197 205/140/237 206/142/238
f 164/152/178 178/150/207 210/150/239 196/152/231
f 167/128/185 166/126/183 198/126/227 199/128/240
f 172/138/195 171/136/193 203/136/210 204/138/241
f 177/148/205 176/146/203 208/146/234 209/148/242
f 165/124/181 163/122/179 195/122/232 197/124/228
f 170/134/191 169/132/189 201/132/236 202/134/209
f 175/144/201 174/142/199 206/142/238 207/144/233
f 168/130/187 167/128/185 199/128/240 200/130/235
f 173/140/197 172/138/195 204/138/241 205/140/237
f 178/150/207 177/148/205 209/148/242 210/150/239
f 166/126/183 165/124/181 197/124/228 198/126/227
f 206/142/238 205/140/237 221/140/243 222/142/244
f 199/128/240 198/126/227 214/126/230 215/128/245
f 207/144/233 206/142/238 222/142/244 223/144/246
f 200/130/235 199/128/240 215/128/245 216/130/247
f 208/146/234 207/144/233 223/144/246 224/146/248
f 201/132/236 200/130/235 216/130/247 217/132/249
f 209/148/242 208/146/234 224/146/248 225/148/250
f 202/134/209 201/132/236 217/132/249 218/134/251
f 210/150/239 209/148/242 225/148/250 226/150/252
f 203/136/210 202/134/209 218/134/251 219/136/253
f 195/122/232 196/121/231 212/121/254 211/122/255
f 196/152/231 210/150/239 226/150/252 212/152/254
f 204/138/241 203/136/210 219/136/253 220/138/256
f 197/124/228 195/122/232 211/122/255 213/124/229
f 205/140/237 204/138/241 220/138/256 221/140/243
f 194/159/216 242/151/208 227/153/177 179/169/226
f 193/158/215 241/149/206 242/151/208 194/159/216
f 192/168/225 240/147/204 241/149/206 193/158/215
f 191/165/222 239/145/202 240/147/204 192/168/225
f 190/164/221 238/143/200 239/145/202 191/165/222
f 189/161/218 237/141/198 238/143/200 190/164/221
f 188/160/217 236/139/196 237/141/198 189/161/218
f 187/155/212 235/137/194 236/139/196 188/160/217
f 186/154/211 234/135/192 235/137/194 187/155/212
f 185/166/223 233/133/190 234/135/192 186/154/211
f 184/163/220 232/131/188 233/133/190 185/166/223
f 183/162/219 231/129/186 232/131/188 184/163/220
f 182/157/214 230/127/184 231/129/186 183/162/219
f 181/156/213 229/125/182 230/127/184 182/157/214
f 180/167/224 228/123/180 229/125/182 181/156/213
f 179/170/226 227/120/177 228/123/180 180/167/224
f 191/165/222 192/168/225 255/168/85 254/165/86
f 252/161/74 253/164/73 280/164/100 281/161/133
f 244/156/81 245/157/90 288/157/131 289/156/132
f 251/160/94 252/161/74 281/161/133 282/160/135
f 243/167/82 244/156/81 289/156/132 290/167/134
f 250/155/98 251/160/94 282/160/135 283/155/137
f 257/159/70 162/169/69 276/169/136 275/159/139
f 162/170/69 243/167/82 290/167/134 276/170/136
f 249/154/77 250/155/98 283/155/137 284/154/138
f 256/158/92 257/159/70 275/159/139 277/158/141
f 248/166/78 249/154/77 284/154/138 285/166/140
f 255/168/85 256/158/92 277/158/141 278/168/143
f 247/163/96 248/166/78 285/166/140 286/163/142
f 254/165/86 255/168/85 278/168/143 279/165/99
f 246/162/89 247/163/96 286/163/142 287/162/144
f 253/164/73 254/165/86 279/165/99 280/164/100
s 0
f 129/171/257 259/172/257 260/173/257
f 129/171/257 261/174/257 259/172/257
f 129/171/257 262/175/257 261/174/257
f 129/171/257 263/176/257 262/175/257
f 129/171/257 264/177/257 263/176/257
f 129/171/257 265/178/257 264/177/257
f 129/171/257 266/179/257 265/178/257
f 129/171/257 267/180/257 266/179/257
f 129/171/257 268/181/257 267/180/257
f 129/171/257 269/182/257 268/181/257
f 129/171/257 270/183/257 269/182/257
f 129/171/257 271/184/257 270/183/257
f 129/171/257 272/185/257 271/184/257
f 129/171/257 273/186/257 272/185/257
f 129/171/257 274/187/257 273/186/257
f 129/171/257 260/173/257 274/187/257
f 258/188/257 275/189/257 276/190/257
f 258/188/257 277/191/257 275/189/257
f 258/188/257 278/192/257 277/191/257
f 258/188/257 279/193/257 278/192/257
f 258/188/257 280/194/257 279/193/257
f 258/188/257 281/195/257 280/194/257
f 258/188/257 282/196/257 281/195/257
f 258/188/257 283/197/257 282/196/257
f 258/188/257 284/198/257 283/197/257
f 258/188/257 285/199/257 284/198/257
f 258/188/257 286/200/257 285/199/257
f 258/188/257 287/201/257 286/200/257
f 258/188/257 288/202/257 287/201/257
f 258/188/257 289/203/257 288/202/257
f 258/188/257 290/204/257 289/203/257
f 258/188/257 276/190/257 290/204/257
f 83/205/258 97/206/258 291/207/258
f 97/206/258 96/208/258 291/207/258
f 96/208/258 95/209/258 291/207/258
f 95/209/258 94/210/258 291/207/258
f 94/210/258 93/211/258 291/207/258
f 93/211/258 92/212/258 291/207/258
f 92/212/258 91/213/258 291/207/258
f 91/213/258 90/214/258 291/207/258
f 90/214/258 89/215/258 291/207/258
f 89/215/258 88/216/258 291/207/258
f 88/216/258 87/217/258 291/207/258
f 87/217/258 86/218/258 291/207/258
f 86/218/258 85/219/258 291/207/258
f 85/219/258 84/220/258 291/207/258
f 84/220/258 82/221/258 291/207/258
f 82/221/258 83/205/258 291/207/258
f 212/222/258 226/223/258 292/224/258
f 226/223/258 225/225/258 292/224/258
f 225/225/258 224/226/258 292/224/258
f 224/226/258 223/227/258 292/224/258
f 223/227/258 222/228/258 292/224/258
f 222/228/258 221/229/258 292/224/258
f 221/229/258 220/230/258 292/224/258
f 220/230/258 219/231/258 292/224/258
f 219/231/258 218/232/258 292/224/258
f 218/232/258 217/233/258 292/224/258
f 217/233/258 216/234/258 292/224/258
f 216/234/258 215/235/258 292/224/258
f 215/235/258 214/236/258 292/224/258
f 214/236/258 213/237/258 292/224/258
f 213/237/258 211/238/258 292/224/258
f 211/238/258 212/222/258 292/224/258
s 1
f 160/239/259 308/117/176 293/119/145 130/240/260
f 158/241/261 307/115/174 308/117/176 160/239/259
f 156/242/262 306/113/172 307/115/174 158/241/261
f 154/243/263 305/111/170 306/113/172 156/242/262
f 152/244/264 304/109/168 305/111/170 154/243/263
f 150/245/265 303/107/166 304/109/168 152/244/264
f 148/246/266 302/105/164 303/107/166 150/245/265
f 146/247/267 301/103/162 302/105/164 148/246/266
f 144/248/268 300/101/160 301/103/162 146/247/267
f 142/249/269 299/99/158 300/101/160 144/248/268
f 140/250/270 298/97/156 299/99/158 142/249/269
f 138/251/271 297/95/154 298/97/156 140/250/270
f 136/252/272 296/93/152 297/95/154 138/251/271
f 134/253/273 295/91/150 296/93/152 136/252/272
f 132/254/274 294/89/148 295/91/150 134/253/273
f 130/255/260 293/86/145 294/89/148 132/254/274
f 31/256/275 324/32/32 309/34/1 1/257/276
f 29/258/277 323/30/30 324/32/32 31/256/275
f 27/259/278 322/28/28 323/30/30 29/258/277
f 25/260/279 321/26/26 322/28/28 27/259/278
f 23/261/280 320/24/24 321/26/26 25/260/279
f 21/262/281 319/22/22 320/24/24 23/261/280
f 19/263/282 318/20/20 319/22/22 21/262/281
f 17/264/283 317/18/18 318/20/20 19/263/282
f 15/265/284 316/16/16 317/18/18 17/264/283
f 13/266/285 315/14/14 316/16/16 15/265/284
f 11/267/286 314/12/12 315/14/14 13/266/285
f 9/268/287 313/10/10 314/12/12 11/267/286
f 7/269/288 312/8/8 313/10/10 9/268/287
f 5/270/289 311/6/6 312/8/8 7/269/288
f 3/271/290 310/4/4 311/6/6 5/270/289
f 1/272/276 309/1/1 310/4/4 3/271/290
