# Blender 5.2.2 LTS
# www.blender.org
mtllib road.mtl
o Cube
v -2.500000 -0.062707 10.000000
v -2.500000 0.062707 10.000000
v -2.500000 -0.062707 -10.000000
v -2.500000 0.062707 -10.000000
v 2.500000 -0.062707 10.000000
v 2.500000 0.062707 10.000000
v 2.500000 -0.062707 -10.000000
v 2.500000 0.062707 -10.000000
vn -1.0000 -0.0000 -0.0000
vn -0.0000 -0.0000 -1.0000
vn 1.0000 -0.0000 -0.0000
vn -0.0000 -0.0000 1.0000
vn -0.0000 -1.0000 -0.0000
vn -0.0000 1.0000 -0.0000
vt 0.666866 0.333133
vt 0.666866 0.000200
vt 0.999800 0.000200
vt 0.999800 0.333133
vt 0.666866 0.666467
vt 0.666866 0.333533
vt 0.999800 0.333533
vt 0.999800 0.666467
vt 0.000200 0.333533
vt 0.333134 0.333533
vt 0.333134 0.666467
vt 0.000200 0.666467
vt 0.333533 0.333533
vt 0.666467 0.333533
vt 0.666467 0.666467
vt 0.333533 0.666467
vt 0.000200 0.000200
vt 0.333134 0.000200
vt 0.333134 0.333134
vt 0.000200 0.333134
vt 0.666467 0.000200
vt 0.666467 0.333134
vt 0.333533 0.333134
vt 0.333533 0.000200
s 0
usemtl Material.001
f 1/1/1 2/2/1 4/3/1 3/4/1
f 3/5/2 4/6/2 8/7/2 7/8/2
f 7/9/3 8/10/3 6/11/3 5/12/3
f 5/13/4 6/14/4 2/15/4 1/16/4
f 3/17/5 7/18/5 5/19/5 1/20/5
f 8/21/6 4/22/6 2/23/6 6/24/6
